<svg xmlns="http://www.w3.org/2000/svg" viewBox="0 0 32 32" id="content-scan"><circle cx="9" cy="9" r="7" fill="#f4a261"></circle><path fill="#264653" d="M7 22.2a1 1 0 0 0-1 1v2.7a2.81 2.81 0 0 0 2.8 2.8h14.4a2.81 2.81 0 0 0 2.8-2.8v-2.7a1 1 0 0 0-2 0v2.7a.8.8 0 0 1-.8.8H8.8a.8.8 0 0 1-.8-.8v-2.7a1 1 0 0 0-1-1zm18-3.4a1 1 0 0 0 1-1V6.1a2.81 2.81 0 0 0-2.8-2.8H8.8A2.81 2.81 0 0 0 6 6.1v11.7a1 1 0 0 0 2 0V6.1a.8.8 0 0 1 .8-.8h14.4a.8.8 0 0 1 .8.8v11.7a1 1 0 0 0 1 1z"></path><path fill="#264653" d="M27.7 18.6a1 1 0 0 0-1 .9H5.28a1 1 0 0 0-1-.9 1 1 0 0 0-1 1v1.8a1 1 0 0 0 1 1 1 1 0 0 0 1-.9h21.44a1 1 0 0 0 1 .9 1 1 0 0 0 1-1v-1.8a1 1 0 0 0-1.02-1Z"></path></svg>