<svg id="Calque_1" data-name="Calque 1" xmlns="http://www.w3.org/2000/svg" width="119.42" height="17" viewBox="0 0 119.42 17"><defs><style>.cls-1{fill:#024662;}.cls-2{fill:#d137af;}.cls-3{fill:#fff;}.cls-4{fill:#c04799;}</style></defs><title>logos noeuron 17 px x 119 px</title><path class="cls-1" d="M16.13,14.68a1.6,1.6,0,1,1-3.19,0V8.23a4.87,4.87,0,0,0-9.74,0v6.45a1.6,1.6,0,1,1-3.19,0V8.23a8.07,8.07,0,0,1,16.13,0Z"/><path class="cls-1" d="M53.4,8.23a1.59,1.59,0,0,1-1.61,1.58H42c-.81,0-.87.26-.87.55a1.55,1.55,0,0,0,.39,1A4.84,4.84,0,0,0,45.3,13.1a4.92,4.92,0,0,0,2.84-.87v0a1.74,1.74,0,0,1,1-.32,1.59,1.59,0,0,1,1.58,1.61,1.66,1.66,0,0,1-.55,1.19s0,0-.06.06A8.05,8.05,0,0,1,37.43,9.81a2.49,2.49,0,0,1-.06-.48c0-.1,0-.19-.06-.29a6.47,6.47,0,0,1,0-.81A8.07,8.07,0,0,1,45.33.17,7.91,7.91,0,0,1,53.4,8.23Zm-3.61-2.1c0-1.26-2.32-2.84-4.45-2.84s-4.45,1.58-4.45,2.84c0,.29.1.55.9.55h7.1C49.69,6.68,49.79,6.43,49.79,6.14Z"/><path class="cls-1" d="M55.63,1.78a1.6,1.6,0,1,1,3.19,0V8.23a4.87,4.87,0,0,0,9.74,0V1.78a1.6,1.6,0,1,1,3.19,0V8.23a8.07,8.07,0,1,1-16.13,0Z"/><path class="cls-1" d="M82.37,3.36A4.85,4.85,0,0,0,77.5,8.23v6.45a1.6,1.6,0,1,1-3.19,0V8.23A8.09,8.09,0,0,1,82.37.17,1.59,1.59,0,0,1,84,1.75,1.62,1.62,0,0,1,82.37,3.36Z"/><path class="cls-1" d="M92.73.26a8,8,0,1,1-8,8A8,8,0,0,1,92.73.26Zm0,12.87a4.86,4.86,0,1,0-4.87-4.87A4.86,4.86,0,0,0,92.73,13.14Z"/><path class="cls-1" d="M119.42,14.68a1.6,1.6,0,1,1-3.19,0V8.23a4.87,4.87,0,0,0-9.74,0v6.45a1.6,1.6,0,1,1-3.19,0V8.23a8.07,8.07,0,0,1,16.13,0Z"/><path class="cls-2" d="M26.85,17a9.57,9.57,0,0,1-3.73-.69,8.12,8.12,0,0,1-2.76-1.86,7.83,7.83,0,0,1-1.7-2.71,9.32,9.32,0,0,1,0-6.46,7.83,7.83,0,0,1,1.7-2.71A8.3,8.3,0,0,1,23.12.7,9.38,9.38,0,0,1,26.85,0a9.27,9.27,0,0,1,3.71.7,8.34,8.34,0,0,1,2.75,1.87A8,8,0,0,1,35,5.29a8.94,8.94,0,0,1,.59,3.23A9.15,9.15,0,0,1,35,11.74a7.84,7.84,0,0,1-1.7,2.71,8.12,8.12,0,0,1-2.76,1.86A9.58,9.58,0,0,1,26.85,17Z"/><path class="cls-3" d="M32.53,10.2,31.47,8.27l1.05-1.76-.07,0,.06-.06L28.39,2.63l-.06.06-.08,0,2,3.65H28.34v.09l-.06.07,1.89,1.73L28.28,9.84l.05.07V10l1.82.15-1.89,3.15.07,0,.05.07,4.12-3.09-.05-.07ZM31,8.77l-.55-.5L31,7.78l.26.48Zm.17-1.1,1-.81-.74,1.23Zm-.08-.15-.53-1h1.68Zm-.62-1.14L28.65,3.11l3.58,3.28Zm.49,1.25-.63.52-1.75-1.6h1.79Zm0,1.29L30.25,10l-1.7-.14,1.74-1.45ZM31,9l1.2,1.1L30.44,10Zm1.21,1.27L28.63,13l1.71-2.85ZM31.1,8.89l.27-.45.76,1.39Z"/><path class="cls-3" d="M24.93,10.57,26.17,10l0-.07.06-.05L24.76,8l1.33-1.85L26,6.13l0-.08-1.2-.49,1.3-2.83-.08,0,0-.08L21.78,4.33l0,.08-.08,0,1.19,2.44L22,8.14l.07.05L22,8.24l.89,1.12-1.18,2.57.08,0,0,.08,4.38,1.37,0-.08.08,0ZM23.48,9.8,24,9.09h0l.68,1.39-.48.23Zm.35-2.42-.23.5-.15-.3Zm-.22.9.29.59-.47-.2Zm.09-.2.32-.7.52.66L24,8.74ZM23.49,6.4l.68-.94.45.18L24,7Zm.52-1-.63.87-1.3-1.65Zm-.14,1.76-.48.25-.25-.51.25-.35Zm-.56.49.21.42-.24.53-1-.42ZM23.83,9l-.46.64-.25-.32.24-.52Zm.23,1.78-2,.94,1.3-1.8Zm.2-1.6,1.67.71-1.07.51ZM24.14,9l0,0,.54-.75,1.2,1.52Zm0-1.75,1.61-.84L24.65,7.88ZM24.19,7l.59-1.27,1,.42Zm.08-1.66,1.36-1.87-.94,2Zm-.16-.07L22,4.41l3.79-1.53Zm-.84,1.15L23,6.73l-.8-1.62Zm0,1.08-.85.45L23,7.06Zm0,1.26-.2.44-.63-.79Zm.07,1.05-1,1.39L23,9.51ZM22,11.95l2.12-1,1.78,2.24Zm2.28-1.09.45-.21,1,2Z"/><circle class="cls-4" cx="32.58" cy="6.36" r="0.94"/><path class="cls-3" d="M32.58,5.72a.64.64,0,1,1-.64.64.64.64,0,0,1,.64-.64m0-.6a1.24,1.24,0,1,0,1.24,1.24,1.24,1.24,0,0,0-1.24-1.24Z"/><circle class="cls-4" cx="27.22" cy="6.23" r="0.94"/><path class="cls-3" d="M27.22,5.59a.64.64,0,1,1-.64.64.64.64,0,0,1,.64-.64m0-.6a1.24,1.24,0,1,0,1.24,1.24A1.24,1.24,0,0,0,27.22,5Z"/><circle class="cls-4" cx="27.22" cy="13.71" r="0.94"/><path class="cls-3" d="M27.22,13.08a.64.64,0,1,1-.64.64.64.64,0,0,1,.64-.64m0-.6a1.24,1.24,0,1,0,1.24,1.24,1.24,1.24,0,0,0-1.24-1.24Z"/><ellipse class="cls-4" cx="21.72" cy="12.18" rx="0.94" ry="0.97"/><path class="cls-3" d="M21.72,11.51a.67.67,0,1,1-.64.67.65.65,0,0,1,.64-.67m0-.6A1.27,1.27,0,1,0,23,12.18a1.25,1.25,0,0,0-1.24-1.27Z"/><circle class="cls-4" cx="21.75" cy="8.3" r="0.97"/><path class="cls-3" d="M21.75,7.63a.67.67,0,1,1-.67.67.67.67,0,0,1,.67-.67m0-.6A1.27,1.27,0,1,0,23,8.3,1.27,1.27,0,0,0,21.75,7Z"/><circle class="cls-4" cx="21.72" cy="4.42" r="0.94"/><path class="cls-3" d="M21.72,3.78a.64.64,0,1,1-.64.64.64.64,0,0,1,.64-.64m0-.6A1.24,1.24,0,1,0,23,4.42a1.24,1.24,0,0,0-1.24-1.24Z"/><circle class="cls-4" cx="32.58" cy="10.32" r="0.94"/><path class="cls-3" d="M32.58,9.68a.64.64,0,1,1-.64.64.64.64,0,0,1,.64-.64m0-.6a1.24,1.24,0,1,0,1.24,1.24,1.24,1.24,0,0,0-1.24-1.24Z"/><ellipse class="cls-4" cx="27.22" cy="2.48" rx="0.94" ry="0.96"/><path class="cls-3" d="M27.22,1.82a.66.66,0,1,1-.64.66.65.65,0,0,1,.64-.66m0-.6a1.26,1.26,0,1,0,1.24,1.26,1.25,1.25,0,0,0-1.24-1.26Z"/><circle class="cls-4" cx="27.22" cy="9.97" r="0.94"/><path class="cls-3" d="M27.22,9.33a.64.64,0,1,1-.64.64.64.64,0,0,1,.64-.64m0-.6A1.24,1.24,0,1,0,28.46,10a1.24,1.24,0,0,0-1.24-1.24Z"/></svg>