<svg width="130" height="126" viewBox="0 0 130 126" fill="none" xmlns="http://www.w3.org/2000/svg">
<g clip-path="url(#clip0_223_58)">
<path d="M63.0989 126.012C53.9091 126.169 44.7818 124.43 36.2547 120.898C28.7804 117.764 22.0173 113.07 16.3915 107.112C11.0145 101.355 6.84942 94.517 4.15691 87.026C-1.38564 71.5763 -1.38564 54.5956 4.15691 39.146C6.84942 31.6549 11.0145 24.8169 16.3915 19.0601C22.0342 13.1041 28.7916 8.38901 36.2547 5.2001C44.7661 1.60504 53.901 -0.160498 63.0989 0.0118678C72.2503 -0.163321 81.3388 1.60271 89.7991 5.2001C97.2327 8.40494 103.964 13.1186 109.59 19.0601C114.922 24.8672 119.059 31.7246 121.753 39.2201C124.591 46.8617 126.031 54.9786 125.999 63.1601C125.988 71.3136 124.55 79.3982 121.753 87.026C119.059 94.5161 114.894 101.354 109.518 107.112C103.893 113.07 97.1295 117.764 89.6551 120.898C81.2172 124.389 72.1918 126.127 63.0989 126.012Z" fill="#D137AF"/>
<path d="M103.982 75.6207L96.3534 61.316L103.91 48.2713H103.406L103.838 47.8266L74.1872 19.5137L73.7554 19.9584H73.1797L87.5733 47.0113H73.8274V47.6784L73.3956 48.1972L86.9976 61.0195L73.3956 72.9525L73.7554 73.4713V74.1384L86.8536 75.2501L73.2517 98.5972H73.7554L74.1153 99.116L103.766 76.2137L103.406 75.6948L103.982 75.6207ZM92.9709 65.0219L89.0127 61.316L92.9709 57.6843L94.8421 61.2419L92.9709 65.0219ZM94.1944 56.869L101.391 50.8654L96.0656 59.9819L94.1944 56.869ZM93.6187 55.7572L89.8043 48.3454H101.895L93.6187 55.7572ZM89.1566 47.3078L76.0584 23.0713L101.823 47.3819L89.1566 47.3078ZM92.6831 56.5725L88.1491 60.4266L75.5546 48.5678H88.437L92.6831 56.5725ZM92.6831 66.1337L87.5733 74.1384L75.3387 73.1007L87.8612 62.3537L92.6831 66.1337ZM92.9709 66.7266L101.607 74.8795L88.9407 74.1384L92.9709 66.7266ZM101.679 76.1395L75.9145 96.3737L88.221 75.2501L101.679 76.1395ZM93.6906 65.9113L95.6338 62.576L101.103 72.8784L93.6906 65.9113Z" fill="white"/>
<path d="M49.2848 78.3594L58.2089 74.1347V73.6158L58.6407 73.2453L48.0613 59.3111L57.6331 45.5994L56.9854 45.4511V44.8582L48.3492 41.2264L57.7051 20.2511H57.1293V19.6582L26.6148 32.11V32.7029H26.0391L34.6033 50.7876L28.1981 60.3488L28.7019 60.7194L28.1981 61.09L34.6033 69.3911L26.111 88.4394H26.6868V89.0323L58.2089 99.1864V98.5935H58.7846L49.2848 78.3594ZM38.8494 72.6523L42.5917 67.39L47.4856 77.6923L44.0311 79.397L38.8494 72.6523ZM41.3683 54.7158L39.713 58.4217L38.6335 56.1982L41.3683 54.7158ZM39.785 61.3864L41.8721 65.7594L38.4896 64.277L39.785 61.3864ZM40.4327 59.9041L42.7357 54.7158L46.478 59.6076L42.5917 64.7958L40.4327 59.9041ZM38.9214 47.4523L43.8152 40.4853L47.0538 41.8194L42.5917 51.8994L38.9214 47.4523ZM42.6637 40.0406L38.1297 46.4888L28.7738 34.2594L42.6637 40.0406ZM41.6562 53.0853L38.2017 54.9382L36.4025 51.1582L38.2017 48.5641L41.6562 53.0853ZM37.6259 56.717L39.1373 59.83L37.41 63.7582L30.2132 60.6453L37.6259 56.717ZM41.3683 66.7229L38.0578 71.4664L36.2585 69.0947L37.9858 65.2406L41.3683 66.7229ZM43.0236 79.9158L28.6299 86.8829L37.9858 73.5417L43.0236 79.9158ZM44.4629 68.057L56.4816 73.3194L48.781 77.0994L44.4629 68.057ZM43.5993 66.7229L47.4856 61.1641L56.1218 72.43L43.5993 66.7229ZM43.5993 53.7523L55.1862 47.5264L47.2697 58.4217L43.5993 53.7523ZM43.9591 51.8994L48.2053 42.4864L55.4021 45.5994L43.9591 51.8994ZM44.5349 39.5958L54.3226 25.7358L47.5576 40.5594L44.5349 39.5958ZM43.3834 39.077L28.1981 32.7029L55.4741 21.3629L43.3834 39.077ZM37.3381 47.6006L35.3949 49.8982L29.6375 37.8911L37.3381 47.6006ZM37.3381 55.6053L31.2208 58.9405L35.3949 52.3441L37.3381 55.6053ZM37.3381 64.9441L35.8987 68.2053L31.3647 62.35L37.3381 64.9441ZM37.8418 72.7264L30.645 83.0288L35.3949 70.5029L37.8418 72.7264ZM28.1981 88.5876L43.4554 81.1758L56.2657 97.7782L28.1981 88.5876ZM44.6069 80.5088L47.8454 78.9523L55.0422 93.7758L44.6069 80.5088Z" fill="white"/>
<path d="M104.32 54.1197C108.056 54.1197 111.085 51.0004 111.085 47.1526C111.085 43.3048 108.056 40.1855 104.32 40.1855C100.584 40.1855 97.5547 43.3048 97.5547 47.1526C97.5547 51.0004 100.584 54.1197 104.32 54.1197Z" fill="#C04799"/>
<path d="M104.338 42.4041C105.249 42.4041 106.14 42.6823 106.897 43.2035C107.655 43.7247 108.245 44.4656 108.593 45.3324C108.942 46.1991 109.033 47.1529 108.856 48.073C108.678 48.9932 108.239 49.8384 107.595 50.5018C106.951 51.1652 106.13 51.617 105.237 51.8C104.343 51.983 103.417 51.8891 102.576 51.5301C101.734 51.171 101.015 50.5631 100.508 49.783C100.002 49.0029 99.7322 48.0858 99.7322 47.1476C99.7322 45.8896 100.217 44.683 101.081 43.7934C101.945 42.9039 103.117 42.4041 104.338 42.4041ZM104.338 37.957C102.573 37.957 100.848 38.4961 99.3802 39.5059C97.9126 40.5158 96.7688 41.9512 96.0934 43.6305C95.4179 45.3099 95.2412 47.1578 95.5855 48.9406C95.9299 50.7234 96.7798 52.361 98.0279 53.6464C99.2759 54.9317 100.866 55.807 102.597 56.1616C104.328 56.5162 106.123 56.3342 107.753 55.6386C109.384 54.943 110.778 53.765 111.758 52.2536C112.739 50.7423 113.262 48.9653 113.262 47.1476C113.262 44.7101 112.322 42.3725 110.648 40.6489C108.975 38.9253 106.705 37.957 104.338 37.957Z" fill="white"/>
<path d="M65.7572 53.149C69.4934 53.149 72.5222 50.0297 72.5222 46.1819C72.5222 42.3341 69.4934 39.2148 65.7572 39.2148C62.021 39.2148 58.9922 42.3341 58.9922 46.1819C58.9922 50.0297 62.021 53.149 65.7572 53.149Z" fill="#C04799"/>
<path d="M65.7444 41.4471C66.6553 41.4471 67.5459 41.7253 68.3033 42.2465C69.0608 42.7677 69.6511 43.5086 69.9997 44.3753C70.3484 45.2421 70.4396 46.1959 70.2618 47.116C70.0841 48.0362 69.6454 48.8814 69.0013 49.5448C68.3571 50.2082 67.5364 50.6599 66.643 50.843C65.7495 51.026 64.8234 50.9321 63.9818 50.573C63.1401 50.214 62.4208 49.606 61.9147 48.826C61.4085 48.0459 61.1384 47.1288 61.1384 46.1906C61.1384 44.9325 61.6237 43.726 62.4875 42.8364C63.3513 41.9468 64.5228 41.4471 65.7444 41.4471ZM65.7444 37C63.9794 37 62.254 37.539 60.7864 38.5489C59.3189 39.5588 58.1751 40.9941 57.4996 42.6735C56.8242 44.3529 56.6475 46.2008 56.9918 47.9836C57.3361 49.7664 58.1861 51.404 59.4341 52.6893C60.6822 53.9746 62.2723 54.85 64.0034 55.2046C65.7345 55.5592 67.5288 55.3772 69.1595 54.6816C70.7901 53.986 72.1839 52.808 73.1645 51.2966C74.1451 49.7852 74.6684 48.0083 74.6684 46.1906C74.6494 43.766 73.7009 41.4473 72.0293 39.7397C70.3578 38.0322 68.0988 37.074 65.7444 37.0741V37Z" fill="white"/>
<path d="M65.7572 108.594C69.4934 108.594 72.5222 105.475 72.5222 101.627C72.5222 97.7794 69.4934 94.6602 65.7572 94.6602C62.021 94.6602 58.9922 97.7794 58.9922 101.627C58.9922 105.475 62.021 108.594 65.7572 108.594Z" fill="#C04799"/>
<path d="M65.7444 96.9646C66.6553 96.9646 67.5459 97.2428 68.3033 97.7641C69.0608 98.2853 69.6511 99.0261 69.9997 99.8929C70.3484 100.76 70.4396 101.713 70.2618 102.634C70.0841 103.554 69.6454 104.399 69.0013 105.062C68.3571 105.726 67.5364 106.178 66.643 106.361C65.7495 106.544 64.8234 106.45 63.9818 106.091C63.1401 105.732 62.4208 105.124 61.9147 104.344C61.4085 103.563 61.1384 102.646 61.1384 101.708C61.1384 100.45 61.6237 99.2436 62.4875 98.354C63.3513 97.4644 64.5228 96.9646 65.7444 96.9646ZM65.7444 92.5176C63.9794 92.5176 62.254 93.0566 60.7864 94.0665C59.3189 95.0763 58.1751 96.5117 57.4996 98.1911C56.8242 99.8704 56.6475 101.718 56.9918 103.501C57.3361 105.284 58.1861 106.922 59.4341 108.207C60.6822 109.492 62.2723 110.368 64.0034 110.722C65.7345 111.077 67.5288 110.895 69.1595 110.199C70.7901 109.504 72.1839 108.326 73.1645 106.814C74.1451 105.303 74.6684 103.526 74.6684 101.708C74.6684 99.2707 73.7282 96.933 72.0546 95.2094C70.3811 93.4859 68.1112 92.5176 65.7444 92.5176Z" fill="white"/>
<path d="M26.1752 97.4862C29.9114 97.4862 32.9402 94.2674 32.9402 90.2968C32.9402 86.3262 29.9114 83.1074 26.1752 83.1074C22.4389 83.1074 19.4102 86.3262 19.4102 90.2968C19.4102 94.2674 22.4389 97.4862 26.1752 97.4862Z" fill="#C04799"/>
<path d="M26.1657 85.326C27.1274 85.2816 28.0799 85.5347 28.9008 86.0526C29.7216 86.5706 30.3731 87.3298 30.7714 88.2324C31.1697 89.1349 31.2965 90.1397 31.1356 91.1171C30.9746 92.0946 30.5332 93.0001 29.8683 93.717C29.2034 94.4339 28.3453 94.9294 27.4045 95.1397C26.4638 95.35 25.4834 95.2656 24.5897 94.8971C23.6959 94.5287 22.9298 93.8932 22.3898 93.0724C21.8497 92.2517 21.5607 91.2833 21.5597 90.2919C21.5405 89.653 21.645 89.0166 21.867 88.4198C22.089 87.8229 22.4241 87.2775 22.8527 86.8154C23.2814 86.3532 23.7951 85.9835 24.3639 85.7278C24.9326 85.4721 25.5451 85.3355 26.1657 85.326ZM26.1657 80.8789C24.3611 80.8935 22.6011 81.458 21.1075 82.5012C19.614 83.5443 18.4537 85.0195 17.7729 86.7407C17.0922 88.462 16.9214 90.3522 17.2821 92.1732C17.6429 93.9943 18.519 95.6645 19.8001 96.9736C21.0812 98.2826 22.7098 99.1717 24.4808 99.529C26.2518 99.8862 28.0858 99.6955 29.7518 98.981C31.4177 98.2664 32.8409 97.0599 33.8421 95.5136C34.8433 93.9673 35.3775 92.1504 35.3776 90.2919C35.3966 89.069 35.1804 87.8543 34.7413 86.718C34.3023 85.5816 33.6491 84.546 32.8194 83.6709C31.9898 82.7959 31.0001 82.0986 29.9075 81.6194C28.815 81.1402 27.641 80.8885 26.4535 80.8789H26.1657Z" fill="white"/>
<path d="M26.3911 68.7226C30.2465 68.7226 33.372 65.5038 33.372 61.5332C33.372 57.5626 30.2465 54.3438 26.3911 54.3438C22.5356 54.3438 19.4102 57.5626 19.4102 61.5332C19.4102 65.5038 22.5356 68.7226 26.3911 68.7226Z" fill="#C04799"/>
<path d="M26.3816 56.5659C27.3352 56.5659 28.2675 56.8571 29.0604 57.4028C29.8534 57.9485 30.4714 58.724 30.8364 59.6314C31.2013 60.5388 31.2968 61.5373 31.1108 62.5006C30.9247 63.4639 30.4655 64.3487 29.7911 65.0432C29.1168 65.7377 28.2576 66.2106 27.3223 66.4022C26.3869 66.5938 25.4174 66.4955 24.5363 66.1197C23.6552 65.7438 22.9021 65.1073 22.3723 64.2907C21.8425 63.474 21.5597 62.5139 21.5597 61.5318C21.5597 60.2147 22.0677 58.9517 22.972 58.0204C23.8763 57.0891 25.1027 56.5659 26.3816 56.5659ZM26.3816 52.1188C24.568 52.0894 22.7869 52.6164 21.2651 53.6326C19.7432 54.6489 18.5493 56.1085 17.8354 57.8257C17.1215 59.5429 16.9198 61.44 17.2561 63.2756C17.5923 65.1112 18.4513 66.8022 19.7236 68.1335C20.9959 69.4648 22.6241 70.3762 24.4009 70.7515C26.1777 71.1269 28.0228 70.9494 29.7013 70.2415C31.3798 69.5336 32.8158 68.3274 33.8267 66.7764C34.8375 65.2254 35.3774 63.3997 35.3776 61.5318C35.4062 60.2894 35.1957 59.0536 34.7582 57.8954C34.3207 56.7373 33.6649 55.6799 32.8286 54.7841C31.9923 53.8883 30.992 53.172 29.8854 52.6764C28.7789 52.1808 27.5881 51.9157 26.3816 51.8965V52.1188Z" fill="white"/>
<path d="M26.1752 39.7447C29.9114 39.7447 32.9402 36.6254 32.9402 32.7776C32.9402 28.9298 29.9114 25.8105 26.1752 25.8105C22.4389 25.8105 19.4102 28.9298 19.4102 32.7776C19.4102 36.6254 22.4389 39.7447 26.1752 39.7447Z" fill="#C04799"/>
<path d="M26.1831 28.0291C27.094 28.0291 27.9846 28.3073 28.742 28.8285C29.4995 29.3497 30.0898 30.0906 30.4384 30.9573C30.787 31.8241 30.8782 32.7779 30.7005 33.698C30.5228 34.6182 30.0841 35.4634 29.44 36.1268C28.7958 36.7902 27.9751 37.242 27.0816 37.425C26.1882 37.608 25.2621 37.5141 24.4204 37.1551C23.5788 36.796 22.8594 36.1881 22.3533 35.408C21.8472 34.6279 21.5771 33.7108 21.5771 32.7726C21.5771 31.5146 22.0624 30.308 22.9262 29.4184C23.7899 28.5289 24.9615 28.0291 26.1831 28.0291ZM26.1831 23.582C24.4314 23.6403 22.7352 24.2284 21.306 25.273C19.8768 26.3176 18.7779 27.7725 18.1464 29.4561C17.5149 31.1398 17.3787 32.9776 17.7549 34.7405C18.131 36.5033 19.0029 38.113 20.2616 39.3689C21.5204 40.6247 23.1103 41.4711 24.8331 41.8023C26.5559 42.1336 28.3353 41.9351 29.9492 41.2316C31.5632 40.5281 32.9403 39.3508 33.9087 37.8465C34.8772 36.3422 35.3941 34.5775 35.395 32.7726C35.395 31.5657 35.1642 30.3706 34.7157 29.2555C34.2672 28.1405 33.6099 27.1273 32.7812 26.2739C31.9525 25.4205 30.9687 24.7435 29.886 24.2816C28.8033 23.8198 27.6429 23.582 26.4709 23.582H26.1831Z" fill="white"/>
<path d="M104.32 83.4771C108.056 83.4771 111.085 80.3578 111.085 76.51C111.085 72.6622 108.056 69.543 104.32 69.543C100.584 69.543 97.5547 72.6622 97.5547 76.51C97.5547 80.3578 100.584 83.4771 104.32 83.4771Z" fill="#C04799"/>
<path d="M104.338 71.7615C105.249 71.7615 106.14 72.0397 106.897 72.5609C107.655 73.0822 108.245 73.823 108.593 74.6898C108.942 75.5565 109.033 76.5103 108.856 77.4305C108.678 78.3506 108.239 79.1958 107.595 79.8592C106.951 80.5226 106.13 80.9744 105.237 81.1574C104.343 81.3405 103.417 81.2465 102.576 80.8875C101.734 80.5285 101.015 79.9205 100.508 79.1404C100.002 78.3603 99.7322 77.4432 99.7322 76.505C99.7322 75.247 100.217 74.0404 101.081 73.1509C101.945 72.2613 103.117 71.7615 104.338 71.7615ZM104.338 67.3145C102.573 67.3145 100.848 67.8535 99.3802 68.8633C97.9126 69.8732 96.7688 71.3086 96.0934 72.988C95.4179 74.6673 95.2412 76.5152 95.5855 78.298C95.9299 80.0808 96.7798 81.7184 98.0279 83.0038C99.2759 84.2891 100.866 85.1644 102.597 85.519C104.328 85.8737 106.123 85.6917 107.753 84.996C109.384 84.3004 110.778 83.1224 111.758 81.6111C112.739 80.0997 113.262 78.3228 113.262 76.505C113.262 74.0675 112.322 71.7299 110.648 70.0063C108.975 68.2827 106.705 67.3145 104.338 67.3145Z" fill="white"/>
<path d="M65.7572 25.5079C69.4934 25.5079 72.5222 22.3223 72.5222 18.3926C72.5222 14.463 69.4934 11.2773 65.7572 11.2773C62.021 11.2773 58.9922 14.463 58.9922 18.3926C58.9922 22.3223 62.021 25.5079 65.7572 25.5079Z" fill="#C04799"/>
<path d="M65.7471 13.5107C66.6921 13.4812 67.6242 13.7429 68.4241 14.2621C69.2239 14.7814 69.855 15.5347 70.2367 16.4255C70.6184 17.3164 70.7332 18.3042 70.5665 19.2627C70.3998 20.2212 69.9592 21.1066 69.301 21.8056C68.6428 22.5047 67.797 22.9855 66.8719 23.1866C65.9468 23.3877 64.9845 23.2998 64.1081 22.9343C63.2318 22.5689 62.4813 21.9423 61.9527 21.135C61.4242 20.3276 61.1416 19.3762 61.1411 18.4025C61.1316 17.7698 61.2432 17.1414 61.4695 16.5531C61.6959 15.9649 62.0325 15.4283 62.4602 14.974C62.8879 14.5198 63.3983 14.1567 63.9623 13.9057C64.5263 13.6546 65.1327 13.5204 65.7471 13.5107ZM65.7471 9.06368C63.9477 9.03426 62.1806 9.55687 60.6706 10.565C59.1605 11.5731 57.9759 13.0211 57.2674 14.7248C56.559 16.4284 56.3587 18.3106 56.6922 20.1318C57.0257 21.9531 57.8778 23.6309 59.14 24.9518C60.4023 26.2728 62.0176 27.177 63.7805 27.5495C65.5433 27.9221 67.3739 27.746 69.0393 27.0437C70.7046 26.3415 72.1294 25.1448 73.1323 23.6059C74.1353 22.0671 74.6709 20.2558 74.6711 18.4025C74.6806 17.1858 74.4573 15.9792 74.014 14.8514C73.5706 13.7236 72.9159 12.6968 72.0872 11.8296C71.2586 10.9624 70.2721 10.2718 69.1843 9.7972C68.0964 9.32262 66.9285 9.07337 65.7471 9.06368Z" fill="white"/>
<path d="M65.7572 80.8716C69.4934 80.8716 72.5222 77.7524 72.5222 73.9046C72.5222 70.0568 69.4934 66.9375 65.7572 66.9375C62.021 66.9375 58.9922 70.0568 58.9922 73.9046C58.9922 77.7524 62.021 80.8716 65.7572 80.8716Z" fill="#C04799"/>
<path d="M65.7691 69.1697C66.6801 69.1697 67.5706 69.4479 68.328 69.9691C69.0855 70.4904 69.6759 71.2312 70.0245 72.098C70.3731 72.9647 70.4643 73.9185 70.2866 74.8387C70.1088 75.7588 69.6702 76.604 69.026 77.2674C68.3819 77.9308 67.5612 78.3826 66.6677 78.5656C65.7742 78.7487 64.8481 78.6547 64.0065 78.2957C63.1648 77.9367 62.4455 77.3287 61.9394 76.5486C61.4333 75.7685 61.1631 74.8514 61.1631 73.9132C61.1631 73.2903 61.2823 72.6735 61.5138 72.098C61.7452 71.5225 62.0845 70.9995 62.5122 70.5591C62.9399 70.1186 63.4477 69.7692 64.0065 69.5308C64.5653 69.2924 65.1642 69.1697 65.7691 69.1697ZM65.7691 64.7227C64.0134 64.7232 62.2969 65.2571 60.8343 66.2574C59.3718 67.2578 58.2283 68.6803 57.547 70.3467C56.8657 72.0132 56.6768 73.8496 57.004 75.626C57.3312 77.4025 58.1599 79.0401 59.3865 80.3338C60.613 81.6276 62.1829 82.52 63.8995 82.8993C65.6162 83.2786 67.4033 83.1281 69.0372 82.4664C70.6712 81.8048 72.0793 80.6615 73.0854 79.1796C74.0914 77.6978 74.6507 75.9432 74.6932 74.1356C74.6932 71.6981 73.753 69.3604 72.0794 67.6369C70.4058 65.9133 68.1359 64.945 65.7691 64.945V64.7227Z" fill="white"/>
</g>
<defs>
<clipPath id="clip0_223_58">
<rect width="130" height="126" fill="white"/>
</clipPath>
</defs>
</svg>
